{"title":"Vanishing.On.7th.Street.2010.PPVRip.H264.Feel-Free","uid":6119738,"size":822276707,"categoryP":"video","categoryS":"movies","magnet":"?xt=urn:btih:219aa2db9e736acf54b04952d97a56174b6eb2d7&amp;dn=Vanishing.On.7th.Street.2010.PPVRip.H264.Feel-Free&amp;tr=udp%3A%2F%2Ftracker.openbittorrent.com%3A80&amp;tr=udp%3A%2F%2Fopen.demonii.com%3A1337&amp;tr=udp%3A%2F%2Ftracker.coppersurfer.tk%3A6969&amp;tr=udp%3A%2F%2Fexodus.desync.com%3A6969","seeders":0,"leechers":1,"uploader":"SaM","files":10,"time":1295654528,"description":"Genre:Horror | Mystery | Thriller\nLanguage:English\nIMDb:http://www.imdb.com/title/tt1452628/\nSource:Rex Thx\n\n\nFormat                           : MPEG-4\nFormat profile                   : Base Media\nCodec ID                         : isom\nFile size                        : 782 MiB\nDuration                         : 1h 31mn\nOverall bit rate                 : 1 199 Kbps\nMovie name                       : Vanishing.On.7th.Street.2010.PPVRip.H264.Feel-Free\n\n\nVideo\nFormat settings, CABAC           : Yes\nFormat settings, ReFrames        : 4 frames\nCodec ID                         : avc1\nCodec ID/Info                    : Advanced Video Coding\nDuration                         : 1h 31mn\nBit rate mode                    : Variable\nBit rate                         : 1 000 Kbps\nWidth                            : 720 pixels\nHeight                           : 384 pixels\nDisplay aspect ratio             : 1.875\nFrame rate mode                  : Constant\nFrame rate                       : 23.976 fps\nColor space                      : YUV\nChroma subsampling               : 4:2:0\nBit depth                        : 8 bits\nScan type                        : Progressive\nBits/(Pixel*Frame)               : 0.151\nStream size                      : 670 MiB (86%)\n\nAudio\nID                               : 2\nFormat                           : AAC\nFormat/Info                      : Advanced Audio Codec\nFormat version                   : Version 4\nFormat profile                   : LC\nCodec ID                         : 40\nDuration                         : 1h 31mn\nBit rate mode                    : Variable\nBit rate                         : 165 Kbps\nChannel(s)                       : 2 channels\nChannel positions                : Front: L R\nSampling rate                    : 48.0 KHz\nStream size                      : 108 MiB (14%)\n\n\n      \nPlot:\n   When a massive power outage plunges the city of Detroit into total darkness, a disparate group of individuals find themselves alone\n\n &lt;a href=&quot;\nhttp://shareimage.org/images/gy3vkskp7r0hiadrsd3.png&quot; rel=&quot;nofollow&quot; target=&quot;_NEW&quot;&gt;\nhttp://shareimage.org/images/gy3vkskp7r0hiadrsd3.png&lt;/a&gt;\n &lt;a href=&quot;\nhttp://shareimage.org/images/s42x1gox6jc9268pufza.png&quot; rel=&quot;nofollow&quot; target=&quot;_NEW&quot;&gt;\nhttp://shareimage.org/images/s42x1gox6jc9268pufza.png&lt;/a&gt;\n &lt;a href=&quot;\nhttp://shareimage.org/images/3pls89i4v25yzfe9lvfw.png&quot; rel=&quot;nofollow&quot; target=&quot;_NEW&quot;&gt;\nhttp://shareimage.org/images/3pls89i4v25yzfe9lvfw.png&lt;/a&gt;\n &lt;a href=&quot;\nhttp://shareimage.org/images/r4tlwf35qp8c5demr.png&quot; rel=&quot;nofollow&quot; target=&quot;_NEW&quot;&gt;\nhttp://shareimage.org/images/r4tlwf35qp8c5demr.png&lt;/a&gt;\n &lt;a href=&quot;\nhttp://shareimage.org/images/lzciw63bzd50vlbbkn3.png&quot; rel=&quot;nofollow&quot; target=&quot;_NEW&quot;&gt;\nhttp://shareimage.org/images/lzciw63bzd50vlbbkn3.png&lt;/a&gt;\n &lt;a href=&quot;\nhttp://shareimage.org/images/n14x5ry7gy8lsj9vhg5.png&quot; rel=&quot;nofollow&quot; target=&quot;_NEW&quot;&gt;\nhttp://shareimage.org/images/n14x5ry7gy8lsj9vhg5.png&lt;/a&gt;\n\nGreets:\n\nINK,CRYS,IMAGINE,LKRG,FXG,3Li,FLAWL3SS,TA,iLLUSiON,ViSiON,LU,TheFalcon007,PrisM,Noir,WBZ,LAP,Rx,Kingdom,SAFCuk009+Fabreezy,HDLiTE,TWiZTED,ExtraTorrentRG.ELEKTRI4KA,MAGNAT,CM8\n                And to all the other p2p grps past and present \n \n\n\n\nMake sure its a real Feel-Free release @ extratorrent","torrent":{"xt":"urn:btih:219aa2db9e736acf54b04952d97a56174b6eb2d7","amp;dn":"Vanishing.On.7th.Street.2010.PPVRip.H264.Feel-Free","amp;tr":["udp%3A%2F%2Ftracker.openbittorrent.com%3A80","udp%3A%2F%2Fopen.demonii.com%3A1337","udp%3A%2F%2Ftracker.coppersurfer.tk%3A6969","udp%3A%2F%2Fexodus.desync.com%3A6969"],"infoHash":"219aa2db9e736acf54b04952d97a56174b6eb2d7","infoHashBuffer":{"type":"Buffer","data":[33,154,162,219,158,115,106,207,84,176,73,82,217,122,86,23,75,110,178,215]},"announce":[],"urlList":[]}}